<svg width="50" height="50" viewBox="0 0 42 39" class="" aria-hidden="true" xmlns="http://www.w3.org/2000/svg" xmlns:xlink="http://www.w3.org/1999/xlink"><path fill="#000000" fill-rule="evenodd" d="M32.32.2c.646 0 1.17.525 1.17 1.174v4.702c0 .649-.524 1.176-1.17 1.176-.646 0-1.17-.527-1.17-1.176V1.374C31.15.725 31.674.2 32.32.2zM10.09.2c.645 0 1.17.525 1.17 1.174v4.702c0 .649-.525 1.176-1.17 1.176-.647 0-1.17-.527-1.17-1.176V1.374C8.92.725 9.443.2 10.09.2zM7.75 3.724v2.351a2.346 2.346 0 0 0 2.34 2.35 2.345 2.345 0 0 0 2.334-2.19l.006-.16v-2.35h17.55v2.35a2.346 2.346 0 0 0 2.34 2.35 2.345 2.345 0 0 0 2.335-2.19l.005-.16v-2.35h4.68c1.239 0 2.253.966 2.335 2.189l.006.161v30.561a2.347 2.347 0 0 1-2.18 2.345l-.161.006H3.07a2.345 2.345 0 0 1-2.335-2.19l-.005-.161V6.076c0-1.244.962-2.263 2.18-2.345l.16-.006h4.68zm31.59 9.404H3.07v23.508h36.27V13.129zM25.886 30.172c.968 0 1.754.79 1.754 1.763a1.76 1.76 0 0 1-1.754 1.763 1.76 1.76 0 0 1-1.756-1.763 1.76 1.76 0 0 1 1.756-1.763zm-4.682 0c.97 0 1.756.79 1.756 1.763a1.76 1.76 0 0 1-1.756 1.763 1.76 1.76 0 0 1-1.755-1.763 1.76 1.76 0 0 1 1.755-1.763zm-4.68 0c.97 0 1.756.79 1.756 1.763a1.76 1.76 0 0 1-1.755 1.763c-.97 0-1.755-.789-1.755-1.763 0-.974.785-1.763 1.755-1.763zm-4.68 0c.97 0 1.756.79 1.756 1.763 0 .974-.786 1.763-1.755 1.763a1.76 1.76 0 0 1-1.756-1.763 1.76 1.76 0 0 1 1.756-1.763zm-4.679 0c.97 0 1.755.79 1.755 1.763 0 .974-.786 1.763-1.755 1.763-.97 0-1.755-.789-1.755-1.763 0-.974.785-1.763 1.755-1.763zm28.08-4.702c.97 0 1.756.79 1.756 1.764a1.76 1.76 0 0 1-1.757 1.763c-.968 0-1.753-.79-1.753-1.763 0-.974.785-1.764 1.753-1.764zm-4.68 0c.97 0 1.755.79 1.755 1.764a1.76 1.76 0 0 1-1.756 1.763 1.76 1.76 0 0 1-1.755-1.763 1.76 1.76 0 0 1 1.755-1.764zm-4.68 0c.969 0 1.755.79 1.755 1.764a1.76 1.76 0 0 1-1.754 1.763 1.76 1.76 0 0 1-1.756-1.763 1.76 1.76 0 0 1 1.756-1.764zm-4.68 0c.968 0 1.755.79 1.755 1.764a1.76 1.76 0 0 1-1.756 1.763 1.76 1.76 0 0 1-1.755-1.763 1.76 1.76 0 0 1 1.755-1.764zm-4.68 0c.969 0 1.755.79 1.755 1.764a1.76 1.76 0 0 1-1.755 1.763c-.97 0-1.755-.79-1.755-1.763 0-.974.785-1.764 1.755-1.764zm-4.68 0c.97 0 1.755.79 1.755 1.764 0 .973-.786 1.763-1.755 1.763a1.76 1.76 0 0 1-1.756-1.763 1.76 1.76 0 0 1 1.756-1.764zm-4.68 0c.97 0 1.755.79 1.755 1.764 0 .973-.786 1.763-1.755 1.763-.97 0-1.755-.79-1.755-1.763 0-.974.785-1.764 1.755-1.764zm28.08-4.701c.97 0 1.756.789 1.756 1.763a1.76 1.76 0 0 1-1.757 1.763c-.968 0-1.753-.79-1.753-1.763 0-.974.785-1.763 1.753-1.763zm-4.68 0c.97 0 1.755.789 1.755 1.763a1.76 1.76 0 0 1-1.756 1.763 1.76 1.76 0 0 1-1.755-1.763 1.76 1.76 0 0 1 1.755-1.763zm-4.68 0c.969 0 1.755.789 1.755 1.763a1.76 1.76 0 0 1-1.754 1.763 1.76 1.76 0 0 1-1.756-1.763 1.76 1.76 0 0 1 1.756-1.763zm-4.68 0c.968 0 1.755.789 1.755 1.763a1.76 1.76 0 0 1-1.756 1.763 1.76 1.76 0 0 1-1.755-1.763 1.76 1.76 0 0 1 1.755-1.763zm-4.68 0c.969 0 1.755.789 1.755 1.763a1.76 1.76 0 0 1-1.755 1.763c-.97 0-1.755-.79-1.755-1.763 0-.974.785-1.763 1.755-1.763zm-4.68 0c.97 0 1.755.789 1.755 1.763 0 .974-.786 1.763-1.755 1.763a1.76 1.76 0 0 1-1.756-1.763 1.76 1.76 0 0 1 1.756-1.763zm-4.68 0c.97 0 1.755.789 1.755 1.763 0 .974-.786 1.763-1.755 1.763-.97 0-1.755-.79-1.755-1.763 0-.974.785-1.763 1.755-1.763zm28.08-4.702c.97 0 1.756.79 1.756 1.763a1.76 1.76 0 0 1-1.757 1.763c-.968 0-1.753-.79-1.753-1.763 0-.973.785-1.763 1.753-1.763zm-4.68 0c.97 0 1.755.79 1.755 1.763a1.76 1.76 0 0 1-1.756 1.763 1.76 1.76 0 0 1-1.755-1.763 1.76 1.76 0 0 1 1.755-1.763zm-4.68 0c.969 0 1.755.79 1.755 1.763a1.76 1.76 0 0 1-1.754 1.763 1.76 1.76 0 0 1-1.756-1.763 1.76 1.76 0 0 1 1.756-1.763zm-4.68 0c.968 0 1.755.79 1.755 1.763a1.76 1.76 0 0 1-1.756 1.763 1.76 1.76 0 0 1-1.755-1.763 1.76 1.76 0 0 1 1.755-1.763z"></path></svg>
